<svg width="700" height="650" viewBox="0 0 700 650" fill="none" xmlns="http://www.w3.org/2000/svg">
<g clip-path="url(#clip0_71_299)">
<path d="M50.5003 429L64.3623 523.058L105.331 437.265L90.8558 531.231L155.289 461.326L113.764 546.851L195.937 499.046L131.05 568.529L223.662 547.071L141.179 594.34L236 601.136L143.25 621.99L231.857 656.436L137.081 649.024L211.598 708.059L123.219 673.036L177.026 751.415L102.895 691.895L131.211 782.655L77.9156 703.926L78.2257 799L50.5003 708.059L22.775 799L23.0851 703.926L-30.2109 782.655L-1.89407 691.895L-76.0257 751.415L-22.218 673.036L-110.598 708.059L-36.0805 649.024L-130.856 656.436L-42.2499 621.99L-135 601.136L-40.1779 594.34L-122.661 547.071L-30.0489 568.529L-94.9363 499.046L-12.7632 546.851L-54.2887 461.326L10.1449 531.231L-4.33024 437.265L36.6384 523.058L50.5003 429Z" fill="#F0C3D2"/>
<path d="M674.5 478L688.362 572.058L729.331 486.265L714.856 580.231L779.289 510.326L737.764 595.851L819.937 548.046L755.05 617.529L847.662 596.071L765.179 643.34L860 650.136L767.25 670.99L855.857 705.436L761.081 698.024L835.598 757.059L747.219 722.036L801.026 800.415L726.895 740.895L755.211 831.655L701.916 752.926L702.226 848L674.5 757.059L646.775 848L647.085 752.926L593.789 831.655L622.106 740.895L547.974 800.415L601.782 722.036L513.402 757.059L587.92 698.024L493.144 705.436L581.75 670.99L489 650.136L583.822 643.34L501.339 596.071L593.951 617.529L529.064 548.046L611.237 595.851L569.711 510.326L634.145 580.231L619.67 486.265L660.638 572.058L674.5 478Z" fill="#F0C3D2"/>
<path d="M-33.6295 26.3884C-33.2643 68.5048 5.42274 102.314 52.7804 101.903C100.138 101.492 138.233 67.0176 137.868 24.9012C137.664 1.29811 121.246 -17.6952 101.199 -17.5214C81.1517 -17.3476 65.0662 1.92763 65.2709 25.5307C65.6361 67.6472 104.323 101.456 151.681 101.045C199.039 100.635 237.135 66.16 236.77 24.0436C236.565 0.440487 220.147 -18.5529 200.099 -18.379C180.052 -18.2052 163.967 1.07002 164.171 24.6731C164.537 66.7895 203.459 100.596 251.107 100.183C298.755 99.77 337.087 65.2933 336.722 23.1769C336.517 -0.426242 320.099 -19.4196 300.052 -19.2457C280.004 -19.0719 263.921 0.203276 264.125 23.8064C264.491 65.9228 303.176 99.7316 350.534 99.321C397.892 98.9103 435.986 64.4357 435.62 22.3193C435.416 -1.28383 419.001 -20.2772 398.953 -20.1034C378.905 -19.9295 362.819 -0.654315 363.024 22.9488C363.389 65.0652 402.077 98.874 449.435 98.4634C496.793 98.0527 534.887 63.5781 534.522 21.4617C534.317 -2.14145 517.899 -21.1348 497.854 -20.961C477.806 -20.7871 461.72 -1.51193 461.925 22.0912C462.29 64.2076 500.979 98.0164 548.334 97.6058C595.692 97.1951 633.788 62.7205 633.423 20.604C633.218 -2.99907 616.8 -21.9924 596.753 -21.8186C576.708 -21.6448 560.622 -2.36955 560.826 21.2336C561.191 63.35 600.113 97.1568 647.76 96.7436C695.408 96.3304 733.74 61.8537 733.375 19.7373" stroke="#F0C3D2" stroke-width="3" stroke-linecap="round"/>
</g>
<defs>
<clipPath id="clip0_71_299">
<rect width="700" height="650" fill="white"/>
</clipPath>
</defs>
</svg>
