<svg width="1728" height="1117" viewBox="0 0 1728 1117" fill="none" xmlns="http://www.w3.org/2000/svg">
<g clip-path="url(#clip0_74_404)">
<rect width="1728" height="1117" fill="#F2F3F2"/>
<path d="M-86.0516 424.6H-18.0516L44.7484 609.4L35.5484 605.4L90.3484 469L117.148 548.6L32.3484 730.6L-86.0516 424.6ZM61.5484 424.6H119.148L191.548 603.4L181.148 601.8L235.148 424.6H297.548L183.948 729.8L61.5484 424.6ZM417.723 422.6C436.123 422.6 452.523 425 466.923 429.8C481.323 434.333 493.323 441 502.923 449.8C512.79 458.333 520.257 468.733 525.323 481C530.39 493 532.923 506.6 532.923 521.8C532.923 533.8 531.057 545.8 527.323 557.8C523.857 569.8 517.99 580.733 509.723 590.6C501.723 600.467 491.057 608.467 477.723 614.6C464.39 620.467 447.857 623.4 428.123 623.4H386.523V717H328.523V422.6H417.723ZM427.723 567.4C436.523 567.4 443.857 565.933 449.723 563C455.59 560.067 460.123 556.333 463.323 551.8C466.79 547.267 469.19 542.6 470.523 537.8C472.123 532.733 472.923 528.067 472.923 523.8C472.923 520.6 472.39 516.6 471.323 511.8C470.523 506.733 468.657 501.667 465.723 496.6C462.79 491.533 458.257 487.267 452.123 483.8C446.257 480.333 438.257 478.6 428.123 478.6H386.523V567.4H427.723ZM482.123 603.4L554.923 717H487.323L412.923 605L482.123 603.4ZM549.542 717L682.342 411H685.542L818.342 717H751.142L666.342 501.8L708.342 473L606.742 717H549.542ZM640.342 610.6H728.742L749.142 659.4H622.342L640.342 610.6ZM930.458 422.6C954.724 422.6 975.258 426.733 992.058 435C1008.86 443 1021.66 454.467 1030.46 469.4C1039.26 484.067 1043.66 501.533 1043.66 521.8C1043.66 533.8 1041.79 545.933 1038.06 558.2C1034.59 570.2 1028.86 581.133 1020.86 591C1013.12 600.867 1002.59 608.867 989.258 615C976.191 620.867 960.058 623.8 940.858 623.8H899.258V717H841.258V422.6H930.458ZM940.458 567.4C949.258 567.4 956.591 565.933 962.458 563C968.324 559.8 972.858 555.933 976.058 551.4C979.524 546.6 981.924 541.667 983.258 536.6C984.858 531.533 985.658 527.133 985.658 523.4C985.658 520.467 985.124 516.6 984.058 511.8C983.258 506.733 981.391 501.667 978.458 496.6C975.524 491.533 970.991 487.267 964.858 483.8C958.991 480.333 950.991 478.6 940.858 478.6H899.258V567.4H940.458ZM1164.75 422.6C1189.02 422.6 1209.55 426.733 1226.35 435C1243.15 443 1255.95 454.467 1264.75 469.4C1273.55 484.067 1277.95 501.533 1277.95 521.8C1277.95 533.8 1276.09 545.933 1272.35 558.2C1268.89 570.2 1263.15 581.133 1255.15 591C1247.42 600.867 1236.89 608.867 1223.55 615C1210.49 620.867 1194.35 623.8 1175.15 623.8H1133.55V717H1075.55V422.6H1164.75ZM1174.75 567.4C1183.55 567.4 1190.89 565.933 1196.75 563C1202.62 559.8 1207.15 555.933 1210.35 551.4C1213.82 546.6 1216.22 541.667 1217.55 536.6C1219.15 531.533 1219.95 527.133 1219.95 523.4C1219.95 520.467 1219.42 516.6 1218.35 511.8C1217.55 506.733 1215.69 501.667 1212.75 496.6C1209.82 491.533 1205.29 487.267 1199.15 483.8C1193.29 480.333 1185.29 478.6 1175.15 478.6H1133.55V567.4H1174.75ZM1309.85 422.6H1510.65V478.6H1367.85V541.4H1494.25V597.4H1367.85V661H1516.25V717H1309.85V422.6ZM1556.26 717V422.6H1644.26C1673.86 422.6 1699.06 427 1719.86 435.8C1740.66 444.6 1757.32 456.333 1769.86 471C1782.66 485.667 1791.99 502.067 1797.86 520.2C1803.72 538.333 1806.66 556.6 1806.66 575C1806.66 596.867 1802.66 616.6 1794.66 634.2C1786.92 651.533 1776.26 666.467 1762.66 679C1749.06 691.267 1733.32 700.733 1715.46 707.4C1697.59 713.8 1678.66 717 1658.66 717H1556.26ZM1614.26 661H1648.66C1663.32 661 1676.66 659.133 1688.66 655.4C1700.66 651.4 1710.92 645.667 1719.46 638.2C1728.26 630.733 1734.92 621.4 1739.46 610.2C1744.26 598.733 1746.66 585.667 1746.66 571C1746.66 551.8 1743.46 536.2 1737.06 524.2C1730.92 511.933 1723.19 502.467 1713.86 495.8C1704.79 489.133 1695.46 484.6 1685.86 482.2C1676.26 479.533 1668.12 478.2 1661.46 478.2H1614.26V661Z" fill="#FEFEFF" fill-opacity="0.5"/>
</g>
<defs>
<clipPath id="clip0_74_404">
<rect width="1728" height="1117" fill="white"/>
</clipPath>
</defs>
</svg>
