<svg viewBox="633 259 410 390" width="410" height="390" fill="#56F09F"><path d=" M653 441 L734 441 C734 441, 744 441, 744 431 L744 405.70705 C744 405.70705, 744 395.70705, 734 395.70705 L695.738215 395.70705 C695.738215 395.70705, 685.738215 395.70705, 685.738215 385.70705 L685.738215 295.70705 C685.738215 295.70705, 685.738215 285.70705, 695.738215 285.70705 L785.738215 285.70705 C785.738215 285.70705, 795.738215 285.70705, 795.738215 295.70705 L795.738215 339 C795.738215 339, 795.738215 349, 805.738215 349 L830 349 C830 349, 840 349, 840 339 L840 279 C840 279, 840 269, 850 269 L940 269 C940 269, 950 269, 950 279 L950 341 C950 341, 950 351, 960 351 L1023 351 C1023 351, 1033 351, 1033 361 L1033 451 C1033 451, 1033 461, 1023 461 L933 461 C933 461, 923 461, 923 451 L923 389 C923 389, 923 379, 913 379 L864 379 C864 379, 854 379, 854 389 L854 449 C854 449, 854 459, 844 459 L763 459 C763 459, 753 459, 753 469 L753 519 C753 519, 753 529, 763 529 L806 529 C806 529, 816 529, 816 539 L816 629 C816 629, 816 639, 806 639 L716 639 C716 639, 706 639, 706 629 L706 561 C706 561, 706 551, 696 551 L653 551 C653 551, 643 551, 643 541 L643 451 C643 451, 643 441, 653 441"></path></svg>