<svg width="700" height="650" viewBox="0 0 700 650" fill="none" xmlns="http://www.w3.org/2000/svg">
<g opacity="0.4" clip-path="url(#clip0_71_299)">
<rect width="700" height="650" fill="#F2F3F2"/>
<path d="M-35 491.004C15.3677 491.004 114 442.004 149 383.004C202.394 292.998 275 138 320.5 122.504C491.693 64.2022 352.5 356 558.557 383.005C816 383.004 778.252 -21 828.5 -21C878.869 -21 1017.75 612 1068 612C1118.37 612 731.635 709.5 782 709.5C832.369 709.5 977.131 383.005 1027.5 383.005C1077.87 383.005 709.659 424.004 760.028 424.004C810.397 424.004 810.397 442.004 860.766 442.004C911.131 442.004 911.131 424.004 961.5 424.004" stroke="#D9D9D9" stroke-width="50" stroke-miterlimit="10" stroke-linecap="round"/>
</g>
<defs>
<clipPath id="clip0_71_299">
<rect width="700" height="650" fill="white"/>
</clipPath>
</defs>
</svg>
