<svg width="700" height="650" viewBox="0 0 700 650" fill="none" xmlns="http://www.w3.org/2000/svg">
<g opacity="0.4" clip-path="url(#clip0_71_299)">
<rect width="700" height="650" fill="#F2F3F2"/>
<path d="M-26 566.004C24.3677 566.004 123 517.004 158 458.004C211.394 367.998 318.421 324.174 366 331C484.5 348 478 438.102 567.557 458.005C882.5 528 787.252 54 837.5 54C887.869 54 1026.75 687 1077 687C1127.37 687 740.635 784.5 791 784.5C841.369 784.5 986.131 458.005 1036.5 458.005C1086.87 458.005 718.659 499.004 769.028 499.004C819.397 499.004 819.397 517.004 869.766 517.004C920.131 517.004 920.131 499.004 970.5 499.004" stroke="#D9D9D9" stroke-width="50" stroke-miterlimit="10" stroke-linecap="round"/>
</g>
<defs>
<clipPath id="clip0_71_299">
<rect width="700" height="650" fill="white"/>
</clipPath>
</defs>
</svg>
