<svg width="700" height="650" viewBox="0 0 700 650" fill="none" xmlns="http://www.w3.org/2000/svg">
<g clip-path="url(#clip0_71_299)">
<path d="M699.622 -134L709.682 -65.7461L739.415 -128.002L728.91 -59.8154L775.671 -110.542L745.535 -48.481L805.169 -83.1711L758.079 -32.75L825.29 -48.321L765.43 -14.02L834.245 -9.089L766.934 6.04401L831.237 31.04L762.456 25.661L816.535 68.5L752.396 43.086L791.445 99.962L737.646 56.771L758.197 122.631L719.518 65.501L719.743 134.492L699.622 68.5L679.501 134.492L679.727 65.501L641.048 122.631L661.598 56.771L607.799 99.962L646.849 43.086L582.709 68.5L636.788 25.661L568.007 31.04L632.311 6.04401L565 -9.089L633.815 -14.02L573.955 -48.321L641.166 -32.75L594.075 -83.1711L653.71 -48.481L623.574 -110.542L670.335 -59.8154L659.83 -128.002L689.562 -65.7461L699.622 -134Z" fill="#F0C3D2"/>
<path d="M-0.377502 -115L9.6825 -46.7461L39.4145 -109.002L28.9095 -40.8154L75.6705 -91.5422L45.5345 -29.481L105.169 -64.1711L58.0795 -13.75L125.29 -29.321L65.4305 4.98L134.245 9.911L66.9335 25.044L131.237 50.04L62.4565 44.661L116.535 87.5L52.3965 62.086L91.4455 118.962L37.6465 75.771L58.1965 141.631L19.5185 84.501L19.7435 153.492L-0.377502 87.5L-20.4985 153.492L-20.2735 84.501L-58.9518 141.631L-38.4015 75.771L-92.2008 118.962L-53.1511 62.086L-117.291 87.5L-63.2115 44.661L-131.993 50.04L-67.6888 25.044L-135 9.911L-66.1851 4.98L-126.045 -29.321L-58.8342 -13.75L-105.925 -64.1711L-46.2895 -29.481L-76.4257 -91.5422L-29.6645 -40.8154L-40.1695 -109.002L-10.4375 -46.7461L-0.377502 -115Z" fill="#F0C3D2"/>
<path d="M699.622 503L709.682 571.254L739.415 508.998L728.91 577.185L775.671 526.458L745.535 588.519L805.169 553.829L758.079 604.25L825.29 588.679L765.43 622.98L834.245 627.911L766.934 643.044L831.237 668.04L762.456 662.661L816.535 705.5L752.396 680.086L791.445 736.962L737.646 693.771L758.197 759.631L719.518 702.501L719.743 771.492L699.622 705.5L679.501 771.492L679.727 702.501L641.048 759.631L661.598 693.771L607.799 736.962L646.849 680.086L582.709 705.5L636.788 662.661L568.007 668.04L632.311 643.044L565 627.911L633.815 622.98L573.955 588.679L641.166 604.25L594.075 553.829L653.71 588.519L623.574 526.458L670.335 577.185L659.83 508.998L689.562 571.254L699.622 503Z" fill="#F0C3D2"/>
<path d="M29.6225 497L39.6825 565.254L69.4145 502.998L58.9095 571.185L105.671 520.458L75.5345 582.519L135.169 547.829L88.0795 598.25L155.29 582.679L95.4305 616.98L164.245 621.911L96.9335 637.044L161.237 662.04L92.4565 656.661L146.535 699.5L82.3965 674.086L121.445 730.962L67.6465 687.771L88.1965 753.631L49.5185 696.501L49.7435 765.492L29.6225 699.5L9.5015 765.492L9.7265 696.501L-28.9518 753.631L-8.4015 687.771L-62.2008 730.962L-23.1511 674.086L-87.2909 699.5L-33.2115 656.661L-101.993 662.04L-37.6888 637.044L-105 621.911L-36.1851 616.98L-96.0455 582.679L-28.8342 598.25L-75.9247 547.829L-16.2895 582.519L-46.4257 520.458L0.335495 571.185L-10.1695 502.998L19.5625 565.254L29.6225 497Z" fill="#F0C3D2"/>
</g>
<defs>
<clipPath id="clip0_71_299">
<rect width="700" height="650" fill="white"/>
</clipPath>
</defs>
</svg>
