<svg width="3938" height="1780" viewBox="0 0 3938 1780" fill="none" xmlns="http://www.w3.org/2000/svg">
<path d="M173.073 674.74L191.692 627.215V543L204.247 595.169L406.739 78.3184L323.572 741.008L456.692 538.514V455L471.404 516.134L664.175 222.905L498.692 629.524L531.354 765.239L587.739 621.318L570.753 756.666L806.751 614.496L564.452 902.777L609.611 1090.42H621.5L641.536 1059.95L608 1021.3L656.759 1033.55L773.692 735.081V726L775.046 731.626L852.739 533.318L818.447 806.56L845.175 765.905L813.908 842.73L809.752 875.844L855.388 1065.47L1039.69 785.118V455L1097.85 696.655L1110.17 677.905L1099.59 703.905L1141.25 877.022L1169.74 804.318L1153.98 929.896L1195.83 1103.79L1217.31 1090.85L1413.69 589.592V532L1422.28 567.677L1435.74 533.318L1428.29 592.663L1514.29 950.013L1693.17 677.905L1539.61 1055.24L1560.64 1142.62L1597.56 1151.89L1809.74 610.318L1745.27 1124L1835.75 1069.5L1737.43 1186.47L1737.36 1187.01L1776.62 1196.87L1859.69 1070.51V543L1952.62 929.153L2067.17 754.905L1968.84 996.535L1991.34 1090.04L2064.87 1108.51L2255.74 621.318L2190.63 1140.1L2256.33 1156.6L2263.54 1145.64L2232 1109.3L2279.57 1121.25L2296.69 1095.2V492L2402.96 933.561L2513.17 765.905L2418.56 998.393L2458.97 1166.31L2459.22 1166.38L2663.69 644.459V543L2678.82 605.852L2692.74 570.318L2685.04 631.692L2770.75 987.841L2947.69 718.681V543L3002 768.683L3059.74 621.318L3027.79 875.852L3084.5 1111.47L3092.75 1106.5L3085.4 1115.24L3085.97 1117.59L3179.8 974.869L3096 878.3L3222.41 910.054L3239.44 884.144V609.5L3280.89 781.731L3308.04 712.439L3268 666.3L3314.69 678.028V661L3319.05 679.124L3320.91 679.59L3343.74 621.318L3335.95 683.368L3527.69 731.533V312L3624.74 715.259L3635.49 687.818L3629.54 735.214L3635.15 758.527L3697.11 774.093L3699.69 767.514V100L3828.23 634.104L3923.74 390.318L3881.82 724.337L4095.74 178.318L4020.27 779.661L4181.17 534.905L4128.15 665.2L4353.17 322.905L4095.74 955.473L4495.75 714.496L4311.23 934.041L4323.75 926.496L4101.92 1190.42H4571L4243.08 1402.42H4399L4039.83 1634.63L4013.17 1699.93H4110.75L4031.09 1751.42H4186L3922.62 1921.7L3862.07 2070L3868.14 1956.92L3806.54 1996.74L3690.07 2282L3700.74 2083.16L3477.07 2631L3491.64 2359.51L3401.82 2579.5L3428.02 2091.23L3232.11 2214.1L3110.07 2513L3122.42 2282.89L3057.26 2323.76L3125.38 2227.82L3127.9 2180.76L2982.01 2272.26L3134.52 2057.46L3141.75 1922.6L3041.43 1985.52L2826.07 2513L2847.86 2106.91L2690.26 2205.76L2855.01 1973.71L2857.75 1922.6L2617.88 2073.04L2459.07 2462L2475.14 2162.56L2406.26 2205.76L2478.27 2104.34L2490.75 1871.6L2212.76 2045.94L2022.07 2513L2041.37 2153.43L2039.26 2154.76L2041.46 2151.65L2053.75 1922.6L1729.64 2125.87L1576.07 2502L1607.75 1911.6L1344.2 2076.89L1202.07 2425L1216.45 2157.01L1156.26 2194.76L1219.18 2106.13L1219.99 2091.19L1169.74 2123.68L936.073 2696L967.755 2105.6L674.35 2289.61L619.073 2425L624.666 2320.77L516.262 2388.76L629.582 2229.15L639.438 2045.47L511.071 2128.46L354.073 2513L365.137 2306.82L178.073 2765L209.755 2174.6L-241.738 2457.76L-60.4785 2202.46L-65.7383 2205.76L76.0098 2006.11L-416 2036.04L-23.9121 1813.13L-58.7305 1773.01L-240 1784.04L-112.206 1711.39L-186.946 1625.26L-246.738 1662.76L-205.189 1604.23L-416 1361.3L-90.7217 1443.01L-27.584 1354.08L-140.49 1223.97L-421 1241.04L-223.242 1128.61L-240 1109.3L-204.818 1118.14L-28.9121 1018.13L-421 566.3L10.6924 674.74V0L173.073 674.74ZM817.867 1938.09L793.018 1998.95L837.061 1936.92L817.867 1938.09ZM1364.15 1103.78L1353.13 1191.53L1355.18 1192.04L1413.69 1103.04L1413.69 982.033L1364.15 1103.78ZM2796.14 1093.38L2816.51 1178L2839.39 1183.75L2947.69 907.312V721.005L2796.14 1093.38ZM2621.76 1135.87L2663.69 1146.4V801.769L2621.76 1135.87ZM936.81 1103.9L1000.81 1119.97L982 1098.3L1039.69 1112.79V851.094L936.81 1103.9ZM1373.3 1030.86L1413.69 969.413V708.99L1373.3 1030.86ZM3512.82 983.004L3519.21 984.609L3526.99 964.755L3522.4 959.466L3512.82 983.004ZM3384.42 950.751L3466.16 971.282L3494.82 927.683L3334.38 742.788L3384.42 950.751ZM3308.97 898.391L3314.69 922.184V852.769L3308.97 898.391ZM406.739 855.473L456.692 825.379V732.728L406.739 855.473Z" fill="#FF694D"/>
</svg>
