<svg width="505" height="500" viewBox="0 0 505 500" fill="none" xmlns="http://www.w3.org/2000/svg">
<mask id="path-1-inside-1_32_5236" fill="white">
<path d="M252.282 0.00810304C253.302 0.00810304 254.332 0.00810304 255.382 0.00810304C296.557 0.07103 296.557 0.07103 300.978 4.52836C302.539 4.69616 304.099 4.82202 305.66 4.9269C310.174 5.33592 314.023 6.3008 318.268 7.853C322.824 9.45764 327.516 10.6323 332.187 11.8698C332.187 12.562 332.187 13.2542 332.187 13.9674C333.779 14.1562 333.779 14.1562 335.401 14.3555C346.189 16.1174 356.02 21.0362 365.622 26.0809C368.555 27.675 368.556 27.675 371.718 28.6504C371.718 29.3426 371.718 30.0348 371.718 30.7479C372.446 31.0311 373.174 31.3143 373.934 31.5975C381.83 34.8906 388.644 39.5158 395.645 44.3821C396.3 44.8436 396.966 45.2946 397.642 45.7665C399.671 47.1719 401.689 48.5982 403.707 50.0246C404.352 50.4755 404.997 50.916 405.663 51.388C407.223 52.4892 408.721 53.6743 410.209 54.8699C410.209 55.5621 410.209 56.2543 410.209 56.9675C411.114 57.3765 411.114 57.3765 412.04 57.796C414.526 59.149 416.367 60.6907 418.469 62.61C420.872 64.7914 423.254 66.8366 425.813 68.8293C426.5 69.4166 427.186 70.0039 427.894 70.6017C427.894 71.2939 427.894 71.9861 427.894 72.6993C428.559 72.9824 429.225 73.2656 429.912 73.5488C432.055 74.7968 432.055 74.7968 433.095 77.9432C433.709 78.2368 434.323 78.5305 434.957 78.8346C438.141 80.5022 439.691 82.8305 441.875 85.6832C444.923 89.6476 447.94 92.6576 451.82 95.7725C453.1 97.6079 453.1 97.6079 453.974 99.3803C455.222 101.772 456.366 103.607 458.062 105.736C460.059 108.253 461.568 110.854 463.128 113.654C464.71 116.402 466.405 119.055 468.111 121.73C479.908 140.304 479.908 140.304 479.908 147.163C480.595 147.163 481.281 147.163 481.989 147.163C485.411 156.004 485.411 156.004 486.15 160.797C486.837 160.797 487.523 160.797 488.231 160.797C488.647 162.622 488.647 162.622 489.073 164.468C489.989 168.159 491.206 171.641 492.548 175.186C498.509 191.338 503.096 210.069 502.867 227.395C502.857 228.297 502.847 229.188 502.836 230.122C502.815 231.107 502.815 231.107 502.795 232.114C503.481 232.114 504.168 232.114 504.875 232.114C504.906 238.669 504.927 245.224 504.938 251.779C504.938 254.002 504.948 256.236 504.958 258.47C504.969 261.669 504.979 264.868 504.979 268.067C504.99 269.073 504.99 270.07 505 271.108C505 272.492 505 272.492 505 273.908C505 274.726 505 275.544 505 276.383C504.875 278.261 504.875 278.261 503.835 279.31C503.554 281.166 503.325 283.033 503.128 284.889C503.003 286.043 502.867 287.186 502.743 288.371C502.472 290.783 502.212 293.195 501.962 295.618C501.286 301.607 500.444 307.134 498.633 312.871C498.353 314.528 498.093 316.195 497.853 317.852C496.865 323.558 495.284 328.99 493.567 334.507C493.307 335.325 493.057 336.154 492.797 337.003C491.195 342.027 489.312 346.82 487.117 351.613C486.129 353.826 485.287 356.08 484.465 358.367C479.45 371.057 472.429 383.034 465.417 394.676C464.928 395.473 464.449 396.27 463.961 397.088C461.859 400.517 459.872 403.381 457.022 406.212C456.575 406.967 456.127 407.733 455.659 408.509C454.109 411.11 452.486 413.533 450.718 415.976C449.927 417.078 449.927 417.078 449.116 418.2C448.637 418.745 448.159 419.291 447.659 419.846C446.973 419.846 446.286 419.846 445.579 419.846C445.163 420.769 445.162 420.769 444.746 421.703C428.937 438.203 410.731 455.508 393.564 469.139C391.036 470.87 392.316 469.999 391.036 470.87C379.666 478.578 379.645 477.973 375.879 478.578C375.879 479.27 375.879 479.881 375.879 480.595C374.568 481.308 373.237 482.081 371.916 482.773C371.177 483.161 370.438 483.56 369.689 483.959C367.557 484.871 367.557 484.871 364.436 484.871C364.436 485.563 364.436 486.255 364.436 486.969C363.729 487.231 363.021 487.493 362.293 487.755C359.12 489.035 359.12 489.035 355.916 491.101C352.15 493.335 348.322 494.488 344.119 495.652C341.799 496.334 339.719 497.194 337.524 498.18C332.156 500.299 326.424 500.015 320.744 499.554C320.057 499.208 319.371 498.862 318.663 498.505C318.663 497.813 318.663 497.121 318.663 496.408C317.633 496.062 316.603 495.715 315.542 495.359C314.273 491.531 314.325 487.975 314.304 483.98C314.294 483.151 314.294 482.312 314.284 481.441C314.263 479.627 314.252 477.802 314.232 475.988C314.211 473.104 314.179 470.219 314.159 467.335C314.096 461.21 314.034 455.086 313.982 448.95C313.919 441.871 313.857 434.781 313.784 427.691C313.753 424.86 313.732 422.028 313.711 419.186C313.701 417.445 313.68 415.693 313.659 413.942C313.659 412.767 313.659 412.767 313.649 411.572C313.483 397.088 309.28 382.552 298.939 372.106C298.409 371.34 298.409 371.34 297.857 370.554C298.201 369.515 298.544 368.477 298.898 367.407C300.032 367.281 301.155 367.156 302.32 367.03C303.829 366.851 305.327 366.673 306.835 366.495C307.574 366.411 308.312 366.327 309.082 366.243C313.576 365.698 317.488 364.712 321.784 363.212C325.644 362.31 329.534 361.534 333.425 360.779C338.397 359.73 342.548 358.199 347.021 355.787C349.164 354.654 351.349 353.847 353.648 353.049C358.423 351.183 362.605 348.687 366.912 345.907C367.526 345.509 368.15 345.11 368.784 344.701C372.238 342.415 375.057 339.929 377.96 336.993C378.646 336.993 379.333 336.993 380.04 336.993C380.384 335.954 380.727 334.916 381.081 333.846C382.797 332.074 384.534 330.333 386.282 328.602C387.031 327.627 387.79 326.662 388.56 325.655C389.184 324.9 389.809 324.145 390.443 323.358C391.13 323.358 391.816 323.358 392.524 323.358C392.711 322.205 392.711 322.205 392.898 321.02C393.564 318.125 394.469 316.195 395.967 313.657C398.651 308.98 400.846 304.208 402.927 299.236C403.312 298.376 403.707 297.506 404.102 296.614C405.174 293.531 405.84 290.437 406.495 287.238C406.901 285.413 407.369 283.599 407.879 281.816C410.573 272.283 411.01 262.938 411.249 253.09C411.291 251.884 411.291 251.884 411.322 250.657C411.967 225.213 407.733 201.458 391.421 181.448C388.311 177.431 386.688 175.071 387.125 169.911C387.697 167.121 388.519 164.562 389.465 161.877C391.13 156.046 390.745 149.963 390.703 143.954C390.714 142.737 390.724 141.52 390.734 140.272C390.724 139.098 390.724 137.923 390.724 136.706C390.714 135.112 390.714 135.112 390.714 133.487C390.422 130.078 389.528 127.299 388.363 124.09C387.801 121.94 387.26 119.769 386.74 117.598C385.98 114.462 385.221 111.42 384.201 108.358C372.457 107.886 372.457 107.886 361.19 110.802C358.433 111.798 355.885 111.735 352.993 111.504C352.993 112.196 352.993 112.889 352.993 113.602C352.213 113.906 351.432 114.221 350.631 114.535C344.265 117.094 338.408 119.915 332.593 123.586C329.378 125.6 326.06 127.425 322.731 129.25C320.983 130.246 319.298 131.358 317.623 132.48C307.314 132.763 292.645 131.945 283.293 127.236C273.868 125.883 264.402 126.03 254.904 126.051C252.095 126.061 249.286 126.051 246.477 126.051C232.246 125.243 232.246 125.243 218.795 128.285C217.006 128.474 215.206 128.62 213.396 128.746C208.663 129.145 204.585 129.952 200.07 131.431C194.078 133.088 189.137 133.77 183.394 130.917C180.502 129.103 177.735 127.33 175.103 125.138C175.103 124.446 175.103 123.754 175.103 123.041C174.416 122.946 173.73 122.863 173.012 122.768C168.934 121.751 165.46 119.947 161.714 118.059C148.399 111.609 135.707 107.813 121.008 106.26C119.978 110.76 118.948 115.259 117.887 119.894C117.2 119.894 116.514 119.894 115.806 119.894C114.829 128.138 114.652 136.318 114.641 144.614C114.631 145.611 114.631 146.617 114.621 147.645C114.641 154.536 115.078 161.3 115.806 168.139C116.493 168.139 117.18 168.139 117.887 168.139C118.73 171.484 118.73 171.484 118.927 175.48C117.252 177.284 115.505 179.025 113.726 180.724C112.217 182.759 110.771 184.835 109.367 186.954C108.316 188.527 108.316 188.527 107.245 190.131C105.445 193.246 104.322 196.152 103.323 199.602C102.636 199.602 101.95 199.602 101.242 199.602C100.504 202.266 99.786 204.919 99.0994 207.594C98.4648 209.901 97.7678 212.198 96.9876 214.463C93.8043 224.752 93.5963 234.799 93.6379 245.486C93.6379 246.241 93.6483 246.997 93.6483 247.783C93.5442 256.813 93.5442 256.813 95.0006 265.675C95.0735 268.213 95.0943 270.751 95.0735 273.279C95.0631 274.611 95.0527 275.932 95.0423 277.296C95.0319 278.303 95.0111 279.32 95.0006 280.358C95.6872 280.358 96.3738 280.358 97.0812 280.358C97.3101 281.407 97.539 282.445 97.7782 283.515C99.8172 292.472 102.46 300.642 106.267 309.001C107.484 311.822 107.484 311.822 107.484 313.919C108.171 313.919 108.857 313.919 109.565 313.919C110.262 315.272 110.959 316.625 111.645 317.989C112.03 318.744 112.426 319.499 112.821 320.275C113.726 322.31 113.726 322.31 113.726 324.407C114.412 324.407 115.099 324.407 115.806 324.407C117.835 326.631 117.835 326.631 120.103 329.525C121.226 330.941 121.226 330.941 122.381 332.399C124.129 334.895 124.129 334.895 124.129 336.993C124.711 337.056 125.294 337.129 125.887 337.192C128.29 338.041 128.29 338.041 130.641 340.454C141.127 350.868 155.431 355.734 169.205 359.908C173.022 361.115 173.022 361.115 175.821 362.289C178.338 363.265 180.481 363.59 183.165 363.81C187.482 364.156 187.483 364.156 188.627 365.31C191.384 365.708 194.12 366.054 196.887 366.359C205.001 367.271 205.001 367.271 207.352 368.456C206.312 371.602 206.312 371.602 203.971 373.637C199.602 377.811 198 383.884 195.909 389.432C195.534 390.334 195.149 391.225 194.754 392.148C193.839 394.665 193.537 396.815 193.246 399.469C192.622 402.426 192.268 403.716 189.865 405.583C181.21 409.61 172.055 410.774 162.62 410.733C161.746 410.753 160.882 410.774 159.977 410.785C153.735 410.795 148.638 409.6 142.854 407.261C141.907 406.894 140.971 406.527 139.993 406.139C129.081 400.989 121.497 391.959 115.806 381.44C113.736 377.906 111.427 375.493 108.524 372.651C108.524 371.959 108.524 371.267 108.524 370.554C107.931 370.27 107.349 369.987 106.735 369.704C104.27 368.414 102.043 366.956 99.7548 365.383C92.0046 360.129 87.5626 357.821 78.0959 357.905C76.1298 357.916 76.1298 357.916 74.1116 357.937C73.1129 357.947 72.1143 357.958 71.074 357.968C70.0857 360.318 70.0857 360.318 70.0337 363.212C73.8411 367.942 78.897 371.361 83.7551 374.917C88.3012 378.346 92.9201 382.153 94.803 387.733C94.8758 388.289 94.9382 388.855 95.0006 389.432C95.6872 389.432 96.3738 389.432 97.0812 389.432C103.177 401.723 103.177 401.723 104.28 403.957C105.05 405.489 105.82 407.02 106.61 408.53C106.995 409.275 107.37 410.009 107.765 410.774C108.285 411.76 108.285 411.76 108.816 412.778C109.565 414.603 109.565 414.603 109.565 417.749C110.595 418.095 111.624 418.441 112.686 418.798C115.806 422.416 115.806 422.416 115.806 425.09C117.065 425.51 117.065 425.51 118.345 425.94C119.229 426.359 120.103 426.768 121.008 427.188C121.528 428.751 121.528 428.751 122.048 430.334C124.316 431.415 124.316 431.415 127.25 432.432C128.467 433.103 129.684 433.785 130.891 434.466C141.242 439.658 152.373 440.235 163.733 440.036C164.95 440.036 166.177 440.025 167.436 440.025C175.238 439.952 182.936 439.427 190.707 438.725C190.843 446.234 190.936 453.733 190.999 461.231C191.019 463.79 191.061 466.339 191.103 468.888C191.165 472.558 191.196 476.229 191.217 479.9C191.248 481.032 191.269 482.176 191.3 483.35C191.3 492.202 191.3 492.202 188.211 496.062C183.789 500.057 180.596 500.026 174.791 499.994C164.96 498.872 155.483 494.541 146.766 490C144.477 488.835 142.136 487.881 139.733 486.969C139.733 486.276 139.733 485.584 139.733 484.871C138.974 484.756 138.214 484.64 137.434 484.525C134.386 483.791 132.42 482.752 129.788 481.074C125.845 478.599 121.871 476.229 117.825 473.932C113.071 471.142 108.743 468.122 104.488 464.64C101.565 462.259 98.5168 460.078 95.4584 457.875C94.959 457.445 94.4701 457.005 93.9604 456.554C93.9604 455.862 93.9604 455.169 93.9604 454.456C93.357 454.351 92.7536 454.257 92.1398 454.152C89.3311 453.261 87.8747 451.992 85.7109 449.999C84.9827 449.338 84.2544 448.667 83.495 447.985C81.04 445.647 78.6369 443.266 76.2754 440.822C75.3704 439.941 75.3704 439.941 74.4445 439.039C69.5968 434.299 65.2795 429.285 61.056 423.979C58.913 421.294 56.7388 418.661 54.5437 416.029C47.9275 408.09 42.0915 400.517 37.2749 391.33C35.7353 388.435 34.0916 385.625 32.3855 382.814C30.1801 379.154 28.214 375.451 26.3415 371.602C25.3116 369.809 24.2609 368.037 23.1894 366.264C21.8474 363.59 21.036 360.81 20.0997 357.968C18.7577 354.738 17.3638 351.529 15.9698 348.33C14.8983 345.383 14.8983 345.383 14.8983 341.188C14.2117 341.188 13.5251 341.188 12.8177 341.188C12.7137 340.149 12.6096 339.111 12.4952 338.041C11.9855 334.423 10.8619 331.277 9.51996 327.879C8.14678 324.009 7.25213 320.034 6.31586 316.048C5.77491 313.856 5.17156 311.675 4.50577 309.514C-0.196345 291.717 0.0221089 272.828 0.011706 254.537C0.011706 253.551 0.00130882 252.566 0.00130882 251.548C-0.0298999 236.425 0.469431 221.605 4.49536 206.943C4.94268 204.961 5.37961 202.979 5.80613 200.997C6.02459 199.959 6.25345 198.91 6.48232 197.84C6.70078 196.781 6.92964 195.722 7.16891 194.62C7.61624 192.491 8.07396 190.352 8.53169 188.212C8.72934 187.279 8.927 186.345 9.13506 185.381C9.6344 183.115 10.1649 180.871 10.7371 178.626C11.4237 178.626 12.1103 178.626 12.8177 178.626C12.8489 178.05 12.8697 177.462 12.9009 176.854C13.3066 171.39 14.4405 167.467 17.0621 162.685C18.248 160.367 18.7473 158.133 19.0594 155.553C19.746 155.553 20.4326 155.553 21.14 155.553C21.2336 154.882 21.3169 154.211 21.4001 153.529C23.5535 144.656 28.5053 136.633 32.7913 128.662C34.154 126.103 35.4856 123.555 36.7444 120.943C37.431 120.943 38.1176 120.943 38.825 120.943C38.9706 120.083 38.9706 120.083 39.1266 119.202C41.9458 109.879 50.3722 101.132 56.3018 93.4757C57.6854 91.7032 59.0378 89.8888 60.3278 88.043C60.7855 87.4766 61.2432 86.9208 61.7113 86.3334C62.3979 86.3334 63.0845 86.3334 63.7919 86.3334C64.1456 85.4734 64.1456 85.4734 64.4993 84.582C66.299 81.3832 68.5981 79.1493 71.2092 76.5693C71.7189 76.0554 72.2391 75.5519 72.7696 75.0171C76.265 71.5771 79.8436 68.2629 83.5679 65.0746C85.0243 63.8056 86.4495 62.4946 87.8434 61.1626C102.99 46.7943 121.684 34.5655 140.503 25.6718C142.979 24.5496 142.979 24.5496 144.935 22.3577C146.994 21.6025 149.085 20.9208 151.176 20.2601C152.778 19.7147 154.38 19.1589 155.972 18.603C156.836 18.2989 157.709 17.9947 158.594 17.6801C159.499 17.3655 160.393 17.0508 161.319 16.7257C162.713 16.2328 162.713 16.2328 164.138 15.7398C168.757 14.1037 173.324 12.4257 177.839 10.4959C182.063 8.713 186.265 7.80056 190.78 7.04544C192.788 6.82519 192.788 6.82519 193.828 5.57714C196.346 5.28348 198.863 5.10519 201.381 4.9269C204.273 4.62275 204.273 4.62275 207.009 3.53201C210.92 2.29445 214.738 1.70713 218.785 1.27713C219.596 1.18274 220.408 1.09884 221.24 1.00445C231.57 -0.0128727 241.91 -0.0233605 252.282 0.00810304Z"/>
</mask>
<path d="M252.282 0.00810304C253.302 0.00810304 254.332 0.00810304 255.382 0.00810304C296.557 0.07103 296.557 0.07103 300.978 4.52836C302.539 4.69616 304.099 4.82202 305.66 4.9269C310.174 5.33592 314.023 6.3008 318.268 7.853C322.824 9.45764 327.516 10.6323 332.187 11.8698C332.187 12.562 332.187 13.2542 332.187 13.9674C333.779 14.1562 333.779 14.1562 335.401 14.3555C346.189 16.1174 356.02 21.0362 365.622 26.0809C368.555 27.675 368.556 27.675 371.718 28.6504C371.718 29.3426 371.718 30.0348 371.718 30.7479C372.446 31.0311 373.174 31.3143 373.934 31.5975C381.83 34.8906 388.644 39.5158 395.645 44.3821C396.3 44.8436 396.966 45.2946 397.642 45.7665C399.671 47.1719 401.689 48.5982 403.707 50.0246C404.352 50.4755 404.997 50.916 405.663 51.388C407.223 52.4892 408.721 53.6743 410.209 54.8699C410.209 55.5621 410.209 56.2543 410.209 56.9675C411.114 57.3765 411.114 57.3765 412.04 57.796C414.526 59.149 416.367 60.6907 418.469 62.61C420.872 64.7914 423.254 66.8366 425.813 68.8293C426.5 69.4166 427.186 70.0039 427.894 70.6017C427.894 71.2939 427.894 71.9861 427.894 72.6993C428.559 72.9824 429.225 73.2656 429.912 73.5488C432.055 74.7968 432.055 74.7968 433.095 77.9432C433.709 78.2368 434.323 78.5305 434.957 78.8346C438.141 80.5022 439.691 82.8305 441.875 85.6832C444.923 89.6476 447.94 92.6576 451.82 95.7725C453.1 97.6079 453.1 97.6079 453.974 99.3803C455.222 101.772 456.366 103.607 458.062 105.736C460.059 108.253 461.568 110.854 463.128 113.654C464.71 116.402 466.405 119.055 468.111 121.73C479.908 140.304 479.908 140.304 479.908 147.163C480.595 147.163 481.281 147.163 481.989 147.163C485.411 156.004 485.411 156.004 486.15 160.797C486.837 160.797 487.523 160.797 488.231 160.797C488.647 162.622 488.647 162.622 489.073 164.468C489.989 168.159 491.206 171.641 492.548 175.186C498.509 191.338 503.096 210.069 502.867 227.395C502.857 228.297 502.847 229.188 502.836 230.122C502.815 231.107 502.815 231.107 502.795 232.114C503.481 232.114 504.168 232.114 504.875 232.114C504.906 238.669 504.927 245.224 504.938 251.779C504.938 254.002 504.948 256.236 504.958 258.47C504.969 261.669 504.979 264.868 504.979 268.067C504.99 269.073 504.99 270.07 505 271.108C505 272.492 505 272.492 505 273.908C505 274.726 505 275.544 505 276.383C504.875 278.261 504.875 278.261 503.835 279.31C503.554 281.166 503.325 283.033 503.128 284.889C503.003 286.043 502.867 287.186 502.743 288.371C502.472 290.783 502.212 293.195 501.962 295.618C501.286 301.607 500.444 307.134 498.633 312.871C498.353 314.528 498.093 316.195 497.853 317.852C496.865 323.558 495.284 328.99 493.567 334.507C493.307 335.325 493.057 336.154 492.797 337.003C491.195 342.027 489.312 346.82 487.117 351.613C486.129 353.826 485.287 356.08 484.465 358.367C479.45 371.057 472.429 383.034 465.417 394.676C464.928 395.473 464.449 396.27 463.961 397.088C461.859 400.517 459.872 403.381 457.022 406.212C456.575 406.967 456.127 407.733 455.659 408.509C454.109 411.11 452.486 413.533 450.718 415.976C449.927 417.078 449.927 417.078 449.116 418.2C448.637 418.745 448.159 419.291 447.659 419.846C446.973 419.846 446.286 419.846 445.579 419.846C445.163 420.769 445.162 420.769 444.746 421.703C428.937 438.203 410.731 455.508 393.564 469.139C391.036 470.87 392.316 469.999 391.036 470.87C379.666 478.578 379.645 477.973 375.879 478.578C375.879 479.27 375.879 479.881 375.879 480.595C374.568 481.308 373.237 482.081 371.916 482.773C371.177 483.161 370.438 483.56 369.689 483.959C367.557 484.871 367.557 484.871 364.436 484.871C364.436 485.563 364.436 486.255 364.436 486.969C363.729 487.231 363.021 487.493 362.293 487.755C359.12 489.035 359.12 489.035 355.916 491.101C352.15 493.335 348.322 494.488 344.119 495.652C341.799 496.334 339.719 497.194 337.524 498.18C332.156 500.299 326.424 500.015 320.744 499.554C320.057 499.208 319.371 498.862 318.663 498.505C318.663 497.813 318.663 497.121 318.663 496.408C317.633 496.062 316.603 495.715 315.542 495.359C314.273 491.531 314.325 487.975 314.304 483.98C314.294 483.151 314.294 482.312 314.284 481.441C314.263 479.627 314.252 477.802 314.232 475.988C314.211 473.104 314.179 470.219 314.159 467.335C314.096 461.21 314.034 455.086 313.982 448.95C313.919 441.871 313.857 434.781 313.784 427.691C313.753 424.86 313.732 422.028 313.711 419.186C313.701 417.445 313.68 415.693 313.659 413.942C313.659 412.767 313.659 412.767 313.649 411.572C313.483 397.088 309.28 382.552 298.939 372.106C298.409 371.34 298.409 371.34 297.857 370.554C298.201 369.515 298.544 368.477 298.898 367.407C300.032 367.281 301.155 367.156 302.32 367.03C303.829 366.851 305.327 366.673 306.835 366.495C307.574 366.411 308.312 366.327 309.082 366.243C313.576 365.698 317.488 364.712 321.784 363.212C325.644 362.31 329.534 361.534 333.425 360.779C338.397 359.73 342.548 358.199 347.021 355.787C349.164 354.654 351.349 353.847 353.648 353.049C358.423 351.183 362.605 348.687 366.912 345.907C367.526 345.509 368.15 345.11 368.784 344.701C372.238 342.415 375.057 339.929 377.96 336.993C378.646 336.993 379.333 336.993 380.04 336.993C380.384 335.954 380.727 334.916 381.081 333.846C382.797 332.074 384.534 330.333 386.282 328.602C387.031 327.627 387.79 326.662 388.56 325.655C389.184 324.9 389.809 324.145 390.443 323.358C391.13 323.358 391.816 323.358 392.524 323.358C392.711 322.205 392.711 322.205 392.898 321.02C393.564 318.125 394.469 316.195 395.967 313.657C398.651 308.98 400.846 304.208 402.927 299.236C403.312 298.376 403.707 297.506 404.102 296.614C405.174 293.531 405.84 290.437 406.495 287.238C406.901 285.413 407.369 283.599 407.879 281.816C410.573 272.283 411.01 262.938 411.249 253.09C411.291 251.884 411.291 251.884 411.322 250.657C411.967 225.213 407.733 201.458 391.421 181.448C388.311 177.431 386.688 175.071 387.125 169.911C387.697 167.121 388.519 164.562 389.465 161.877C391.13 156.046 390.745 149.963 390.703 143.954C390.714 142.737 390.724 141.52 390.734 140.272C390.724 139.098 390.724 137.923 390.724 136.706C390.714 135.112 390.714 135.112 390.714 133.487C390.422 130.078 389.528 127.299 388.363 124.09C387.801 121.94 387.26 119.769 386.74 117.598C385.98 114.462 385.221 111.42 384.201 108.358C372.457 107.886 372.457 107.886 361.19 110.802C358.433 111.798 355.885 111.735 352.993 111.504C352.993 112.196 352.993 112.889 352.993 113.602C352.213 113.906 351.432 114.221 350.631 114.535C344.265 117.094 338.408 119.915 332.593 123.586C329.378 125.6 326.06 127.425 322.731 129.25C320.983 130.246 319.298 131.358 317.623 132.48C307.314 132.763 292.645 131.945 283.293 127.236C273.868 125.883 264.402 126.03 254.904 126.051C252.095 126.061 249.286 126.051 246.477 126.051C232.246 125.243 232.246 125.243 218.795 128.285C217.006 128.474 215.206 128.62 213.396 128.746C208.663 129.145 204.585 129.952 200.07 131.431C194.078 133.088 189.137 133.77 183.394 130.917C180.502 129.103 177.735 127.33 175.103 125.138C175.103 124.446 175.103 123.754 175.103 123.041C174.416 122.946 173.73 122.863 173.012 122.768C168.934 121.751 165.46 119.947 161.714 118.059C148.399 111.609 135.707 107.813 121.008 106.26C119.978 110.76 118.948 115.259 117.887 119.894C117.2 119.894 116.514 119.894 115.806 119.894C114.829 128.138 114.652 136.318 114.641 144.614C114.631 145.611 114.631 146.617 114.621 147.645C114.641 154.536 115.078 161.3 115.806 168.139C116.493 168.139 117.18 168.139 117.887 168.139C118.73 171.484 118.73 171.484 118.927 175.48C117.252 177.284 115.505 179.025 113.726 180.724C112.217 182.759 110.771 184.835 109.367 186.954C108.316 188.527 108.316 188.527 107.245 190.131C105.445 193.246 104.322 196.152 103.323 199.602C102.636 199.602 101.95 199.602 101.242 199.602C100.504 202.266 99.786 204.919 99.0994 207.594C98.4648 209.901 97.7678 212.198 96.9876 214.463C93.8043 224.752 93.5963 234.799 93.6379 245.486C93.6379 246.241 93.6483 246.997 93.6483 247.783C93.5442 256.813 93.5442 256.813 95.0006 265.675C95.0735 268.213 95.0943 270.751 95.0735 273.279C95.0631 274.611 95.0527 275.932 95.0423 277.296C95.0319 278.303 95.0111 279.32 95.0006 280.358C95.6872 280.358 96.3738 280.358 97.0812 280.358C97.3101 281.407 97.539 282.445 97.7782 283.515C99.8172 292.472 102.46 300.642 106.267 309.001C107.484 311.822 107.484 311.822 107.484 313.919C108.171 313.919 108.857 313.919 109.565 313.919C110.262 315.272 110.959 316.625 111.645 317.989C112.03 318.744 112.426 319.499 112.821 320.275C113.726 322.31 113.726 322.31 113.726 324.407C114.412 324.407 115.099 324.407 115.806 324.407C117.835 326.631 117.835 326.631 120.103 329.525C121.226 330.941 121.226 330.941 122.381 332.399C124.129 334.895 124.129 334.895 124.129 336.993C124.711 337.056 125.294 337.129 125.887 337.192C128.29 338.041 128.29 338.041 130.641 340.454C141.127 350.868 155.431 355.734 169.205 359.908C173.022 361.115 173.022 361.115 175.821 362.289C178.338 363.265 180.481 363.59 183.165 363.81C187.482 364.156 187.483 364.156 188.627 365.31C191.384 365.708 194.12 366.054 196.887 366.359C205.001 367.271 205.001 367.271 207.352 368.456C206.312 371.602 206.312 371.602 203.971 373.637C199.602 377.811 198 383.884 195.909 389.432C195.534 390.334 195.149 391.225 194.754 392.148C193.839 394.665 193.537 396.815 193.246 399.469C192.622 402.426 192.268 403.716 189.865 405.583C181.21 409.61 172.055 410.774 162.62 410.733C161.746 410.753 160.882 410.774 159.977 410.785C153.735 410.795 148.638 409.6 142.854 407.261C141.907 406.894 140.971 406.527 139.993 406.139C129.081 400.989 121.497 391.959 115.806 381.44C113.736 377.906 111.427 375.493 108.524 372.651C108.524 371.959 108.524 371.267 108.524 370.554C107.931 370.27 107.349 369.987 106.735 369.704C104.27 368.414 102.043 366.956 99.7548 365.383C92.0046 360.129 87.5626 357.821 78.0959 357.905C76.1298 357.916 76.1298 357.916 74.1116 357.937C73.1129 357.947 72.1143 357.958 71.074 357.968C70.0857 360.318 70.0857 360.318 70.0337 363.212C73.8411 367.942 78.897 371.361 83.7551 374.917C88.3012 378.346 92.9201 382.153 94.803 387.733C94.8758 388.289 94.9382 388.855 95.0006 389.432C95.6872 389.432 96.3738 389.432 97.0812 389.432C103.177 401.723 103.177 401.723 104.28 403.957C105.05 405.489 105.82 407.02 106.61 408.53C106.995 409.275 107.37 410.009 107.765 410.774C108.285 411.76 108.285 411.76 108.816 412.778C109.565 414.603 109.565 414.603 109.565 417.749C110.595 418.095 111.624 418.441 112.686 418.798C115.806 422.416 115.806 422.416 115.806 425.09C117.065 425.51 117.065 425.51 118.345 425.94C119.229 426.359 120.103 426.768 121.008 427.188C121.528 428.751 121.528 428.751 122.048 430.334C124.316 431.415 124.316 431.415 127.25 432.432C128.467 433.103 129.684 433.785 130.891 434.466C141.242 439.658 152.373 440.235 163.733 440.036C164.95 440.036 166.177 440.025 167.436 440.025C175.238 439.952 182.936 439.427 190.707 438.725C190.843 446.234 190.936 453.733 190.999 461.231C191.019 463.79 191.061 466.339 191.103 468.888C191.165 472.558 191.196 476.229 191.217 479.9C191.248 481.032 191.269 482.176 191.3 483.35C191.3 492.202 191.3 492.202 188.211 496.062C183.789 500.057 180.596 500.026 174.791 499.994C164.96 498.872 155.483 494.541 146.766 490C144.477 488.835 142.136 487.881 139.733 486.969C139.733 486.276 139.733 485.584 139.733 484.871C138.974 484.756 138.214 484.64 137.434 484.525C134.386 483.791 132.42 482.752 129.788 481.074C125.845 478.599 121.871 476.229 117.825 473.932C113.071 471.142 108.743 468.122 104.488 464.64C101.565 462.259 98.5168 460.078 95.4584 457.875C94.959 457.445 94.4701 457.005 93.9604 456.554C93.9604 455.862 93.9604 455.169 93.9604 454.456C93.357 454.351 92.7536 454.257 92.1398 454.152C89.3311 453.261 87.8747 451.992 85.7109 449.999C84.9827 449.338 84.2544 448.667 83.495 447.985C81.04 445.647 78.6369 443.266 76.2754 440.822C75.3704 439.941 75.3704 439.941 74.4445 439.039C69.5968 434.299 65.2795 429.285 61.056 423.979C58.913 421.294 56.7388 418.661 54.5437 416.029C47.9275 408.09 42.0915 400.517 37.2749 391.33C35.7353 388.435 34.0916 385.625 32.3855 382.814C30.1801 379.154 28.214 375.451 26.3415 371.602C25.3116 369.809 24.2609 368.037 23.1894 366.264C21.8474 363.59 21.036 360.81 20.0997 357.968C18.7577 354.738 17.3638 351.529 15.9698 348.33C14.8983 345.383 14.8983 345.383 14.8983 341.188C14.2117 341.188 13.5251 341.188 12.8177 341.188C12.7137 340.149 12.6096 339.111 12.4952 338.041C11.9855 334.423 10.8619 331.277 9.51996 327.879C8.14678 324.009 7.25213 320.034 6.31586 316.048C5.77491 313.856 5.17156 311.675 4.50577 309.514C-0.196345 291.717 0.0221089 272.828 0.011706 254.537C0.011706 253.551 0.00130882 252.566 0.00130882 251.548C-0.0298999 236.425 0.469431 221.605 4.49536 206.943C4.94268 204.961 5.37961 202.979 5.80613 200.997C6.02459 199.959 6.25345 198.91 6.48232 197.84C6.70078 196.781 6.92964 195.722 7.16891 194.62C7.61624 192.491 8.07396 190.352 8.53169 188.212C8.72934 187.279 8.927 186.345 9.13506 185.381C9.6344 183.115 10.1649 180.871 10.7371 178.626C11.4237 178.626 12.1103 178.626 12.8177 178.626C12.8489 178.05 12.8697 177.462 12.9009 176.854C13.3066 171.39 14.4405 167.467 17.0621 162.685C18.248 160.367 18.7473 158.133 19.0594 155.553C19.746 155.553 20.4326 155.553 21.14 155.553C21.2336 154.882 21.3169 154.211 21.4001 153.529C23.5535 144.656 28.5053 136.633 32.7913 128.662C34.154 126.103 35.4856 123.555 36.7444 120.943C37.431 120.943 38.1176 120.943 38.825 120.943C38.9706 120.083 38.9706 120.083 39.1266 119.202C41.9458 109.879 50.3722 101.132 56.3018 93.4757C57.6854 91.7032 59.0378 89.8888 60.3278 88.043C60.7855 87.4766 61.2432 86.9208 61.7113 86.3334C62.3979 86.3334 63.0845 86.3334 63.7919 86.3334C64.1456 85.4734 64.1456 85.4734 64.4993 84.582C66.299 81.3832 68.5981 79.1493 71.2092 76.5693C71.7189 76.0554 72.2391 75.5519 72.7696 75.0171C76.265 71.5771 79.8436 68.2629 83.5679 65.0746C85.0243 63.8056 86.4495 62.4946 87.8434 61.1626C102.99 46.7943 121.684 34.5655 140.503 25.6718C142.979 24.5496 142.979 24.5496 144.935 22.3577C146.994 21.6025 149.085 20.9208 151.176 20.2601C152.778 19.7147 154.38 19.1589 155.972 18.603C156.836 18.2989 157.709 17.9947 158.594 17.6801C159.499 17.3655 160.393 17.0508 161.319 16.7257C162.713 16.2328 162.713 16.2328 164.138 15.7398C168.757 14.1037 173.324 12.4257 177.839 10.4959C182.063 8.713 186.265 7.80056 190.78 7.04544C192.788 6.82519 192.788 6.82519 193.828 5.57714C196.346 5.28348 198.863 5.10519 201.381 4.9269C204.273 4.62275 204.273 4.62275 207.009 3.53201C210.92 2.29445 214.738 1.70713 218.785 1.27713C219.596 1.18274 220.408 1.09884 221.24 1.00445C231.57 -0.0128727 241.91 -0.0233605 252.282 0.00810304Z" stroke="#D9D9D9" stroke-width="4" mask="url(#path-1-inside-1_32_5236)"/>
</svg>
