<svg width="1728" height="1117" viewBox="0 0 1728 1117" fill="none" xmlns="http://www.w3.org/2000/svg">
<g clip-path="url(#clip0_74_404)">
<rect width="1728" height="1117" fill="#F2F3F2"/>
<path fill-rule="evenodd" clip-rule="evenodd" d="M274.82 317.655C265.644 309.132 256.693 300.819 245.646 303.518C234.839 306.159 229.973 316.893 224.989 327.886C220.856 337 216.643 346.292 208.897 351.299C202.252 355.594 193.565 354.901 185.006 354.219C175.379 353.451 165.914 352.696 159.699 359.068C153.24 365.69 154.304 375.337 155.397 385.237C156.219 392.693 157.058 400.293 154.71 406.852C152.046 414.296 145.909 420.643 139.9 426.857C131.425 435.621 123.205 444.122 125.343 455.066C127.716 467.209 138.039 469.103 149.358 471.179C158.929 472.935 169.213 474.821 176.006 483.144C181.849 490.303 182.585 498.399 183.383 507.167C184.244 516.634 185.177 526.883 192.686 537.58C203.802 553.413 226.303 559.814 245.646 559.481C280.983 558.872 308.503 534.477 334.722 500.977C360.941 467.477 365.435 437.477 356.656 402.27C345.883 359.068 332.722 349.977 292.198 330.942C285.983 328.023 280.36 322.801 274.82 317.655ZM200.46 322.099C200.46 331.832 194.501 339.721 187.15 339.721C179.799 339.721 173.839 331.832 173.839 322.099C173.839 312.367 179.799 304.477 187.15 304.477C194.501 304.477 200.46 312.367 200.46 322.099Z" fill="#4F4F4F"/>
<path fill-rule="evenodd" clip-rule="evenodd" d="M815.327 681.552C829 677.13 838.984 700.433 851.254 709.563C862.766 718.128 875.681 721.92 885.762 733.959C910.5 763.5 914.456 811.766 909.5 840.5C904.579 869.031 876.837 899.484 855.527 918.771C843.219 929.909 830.234 942.65 815.327 942.99C763.006 944.183 779.254 893.679 761.579 865.02C752.038 849.548 726.536 855.577 722.479 836.341C718.525 817.594 740.189 805.423 745.144 787.097C749.362 771.5 740.255 750.148 748.995 738.29C758.055 725.996 776.067 739.677 786.965 730.355C800.154 719.074 800.072 686.486 815.327 681.552Z" fill="#CBEE4C"/>
<path d="M632.149 306.645C603.859 321.239 569.962 309.857 556.1 281.109C537.618 242.79 542.194 204.596 517.337 166.609C501.076 141.762 482.658 98.9691 514.225 77.7459C533.842 64.5596 558.971 70.5674 594.685 96.9801C619.505 115.332 630.44 119.689 659.073 122.639C721.149 129.026 740.324 158.293 702.293 209.178C680.217 238.717 666.17 289.103 632.149 306.645Z" fill="#F2C94C"/>
<path d="M1439.25 725.916C1473.75 721.878 1484.84 717.617 1508.75 699.189C1544.27 671.833 1597.25 671.709 1612.41 724.036C1624.06 764.281 1612.82 814.213 1586.97 837.106C1543.43 875.658 1462.85 882.551 1412.84 852.809C1369.72 827.172 1355.86 777.85 1382.75 745.707C1391.87 734.805 1406.2 729.783 1439.25 725.916Z" fill="#F2994A"/>
<path d="M1275.1 52.209C1277.81 20.98 1286.29 8.71974 1309.7 2.16904C1358.54 -11.4958 1408.11 42.8061 1443.79 69.9541C1471.35 90.9231 1501.91 118.634 1490.41 156.986C1477.47 200.145 1417.13 219.45 1383.08 191.278C1358.67 171.07 1349.35 170.314 1318.65 186.048C1284.54 203.529 1266.11 201.979 1251.02 180.36C1239.1 163.287 1241.65 142.788 1250.94 125.375C1272.01 85.8661 1272.23 85.1971 1275.1 52.209Z" fill="#50B0A1"/>
<path d="M301.426 869.674C275.776 857.283 275.098 837.947 289.842 824.652C302.667 813.087 316.319 803.587 316.319 785C316.319 767.239 308.045 747 286.532 747C251.78 747 186 782.109 186 869.674C186 957.239 248.057 994 289.014 994C329.972 994 361 970.043 361 933.283C361 896.522 327.076 882.065 301.426 869.674Z" fill="#EA6C79"/>
<path d="M1691 -22L1691.02 101.878L1738.45 -12.5611L1691.07 101.897L1778.68 14.3188L1691.1 101.931L1805.56 54.547L1691.12 101.976L1815 102L1691.12 102.024L1805.56 149.453L1691.1 102.069L1778.68 189.681L1691.07 102.103L1738.45 216.561L1691.02 102.122L1691 226L1690.98 102.122L1643.55 216.561L1690.93 102.103L1603.32 189.681L1690.9 102.069L1576.44 149.453L1690.88 102.024L1567 102L1690.88 101.976L1576.44 54.547L1690.9 101.931L1603.32 14.3188L1690.93 101.897L1643.55 -12.5611L1690.98 101.878L1691 -22Z" fill="#F0C3D2" stroke="#4F4F4F" stroke-width="4"/>
</g>
<defs>
<clipPath id="clip0_74_404">
<rect width="1728" height="1117" fill="white"/>
</clipPath>
</defs>
</svg>
