<svg width="700" height="650" viewBox="0 0 700 650" fill="none" xmlns="http://www.w3.org/2000/svg">
<g opacity="0.4" clip-path="url(#clip0_71_299)">
<path fill-rule="evenodd" clip-rule="evenodd" d="M646.545 0H627.853L709 73.4618V56.5389L646.545 0ZM709 15.6841L691.675 0H709V15.6841ZM709 114.316L582.723 0H564.031L709 131.239V114.316ZM709 172.094L518.901 0H500.209L709 189.017V172.094ZM709 229.872L455.079 0H436.386L709 246.795V229.872ZM709 287.65L391.257 0H372.564L709 304.573V287.65ZM686.434 325L350 20.4278V37.3507L667.742 325H686.434ZM622.612 325L350 78.2055V95.1282L603.92 325H622.612ZM558.79 325L350 135.983V152.906L540.098 325H558.79ZM494.967 325L350 193.761V210.684L476.275 325H494.967ZM431.146 325L350 251.538V268.462L412.453 325H431.146ZM367.324 325L350 309.316V325H367.324Z" fill="#D9D9D9"/>
<path fill-rule="evenodd" clip-rule="evenodd" d="M289.111 325H270.888L350 398.462V381.539L289.111 325ZM350 340.684L333.11 325H350V340.684ZM350 439.316L226.889 325H208.665L350 456.239V439.316ZM350 497.094L164.666 325H146.443L350 514.017V497.094ZM350 554.872L102.444 325H84.2203L350 571.795V554.872ZM350 612.65L40.2226 325H21.998L350 629.573V612.65ZM328 650L0 345.428V362.351L309.776 650H328ZM265.778 650L0 403.206V420.128L247.554 650H265.778ZM203.555 650L0 460.983V477.906L185.332 650H203.555ZM141.333 650L0 518.761V535.684L123.11 650H141.333ZM79.1115 650L0 576.538V593.462L60.8869 650H79.1115ZM16.8893 650L0 634.316V650H16.8893Z" fill="#D9D9D9"/>
<rect width="350" height="325" fill="#D9D9D9"/>
<rect x="350" y="325" width="350" height="325" fill="#D9D9D9"/>
</g>
<defs>
<clipPath id="clip0_71_299">
<rect width="700" height="650" fill="white"/>
</clipPath>
</defs>
</svg>
