<svg width="205" height="408" viewBox="0 0 205 408" fill="none" xmlns="http://www.w3.org/2000/svg">
<path d="M130.951 1.5C59.457 1.5 1.5 21.7715 1.5 46.7777C1.5 71.7839 59.457 92.0556 130.951 92.0556C171.019 92.0556 203.5 83.4744 203.5 72.8889C203.5 62.3034 171.019 53.7222 130.951 53.7222C59.457 53.7222 1.5 73.9937 1.5 98.9999C1.5 124.006 59.457 144.278 130.951 144.278C171.019 144.278 203.5 135.697 203.5 125.111C203.5 114.526 171.019 105.944 130.951 105.944C59.457 105.944 1.5 126.34 1.5 151.5C1.5 176.659 59.457 197.056 130.951 197.056C171.019 197.056 203.5 188.474 203.5 177.889C203.5 167.303 171.019 158.723 130.951 158.723C59.457 158.723 1.5 178.994 1.5 204C1.5 229.006 59.457 249.277 130.951 249.277C171.019 249.277 203.5 240.697 203.5 230.111C203.5 219.526 171.019 210.944 130.951 210.944C59.457 210.944 1.5 231.216 1.5 256.223C1.5 281.229 59.457 301.5 130.951 301.5C171.019 301.5 203.5 292.918 203.5 282.334C203.5 271.748 171.019 263.167 130.951 263.167C59.457 263.167 1.5 283.439 1.5 308.444C1.5 333.45 59.457 353.722 130.951 353.722C171.019 353.722 203.5 345.141 203.5 334.555C203.5 323.971 171.019 315.389 130.951 315.389C59.457 315.389 1.5 335.784 1.5 360.944C1.5 386.103 59.457 406.5 130.951 406.5" stroke="#D9D9D9" stroke-width="3" stroke-linecap="round"/>
</svg>
